<?xml version="1.0" encoding="utf-8"?>
<!-- Generator: Adobe Illustrator 21.1.0, SVG Export Plug-In . SVG Version: 6.00 Build 0)  -->
<svg version="1.1"
	 id="svg8" inkscape:version="0.92.2 (5c3e80d, 2017-08-06)" sodipodi:docname="dessin.svg" xmlns:cc="http://creativecommons.org/ns#" xmlns:dc="http://purl.org/dc/elements/1.1/" xmlns:inkscape="http://www.inkscape.org/namespaces/inkscape" xmlns:rdf="http://www.w3.org/1999/02/22-rdf-syntax-ns#" xmlns:sodipodi="http://sodipodi.sourceforge.net/DTD/sodipodi-0.dtd" xmlns:svg="http://www.w3.org/2000/svg"
	 xmlns="http://www.w3.org/2000/svg" xmlns:xlink="http://www.w3.org/1999/xlink" x="0px" y="0px" viewBox="0 0 595.3 184"
	 style="enable-background:new 0 0 595.3 184;" xml:space="preserve">
<style type="text/css">
	.st0{clip-path:url(#SVGID_2_);}
</style>
<sodipodi:namedview  bordercolor="#666666" borderopacity="1.0" id="base" inkscape:current-layer="layer1" inkscape:cx="154.9806" inkscape:cy="563.30335" inkscape:document-units="mm" inkscape:pageopacity="0.0" inkscape:pageshadow="2" inkscape:window-height="1017" inkscape:window-maximized="1" inkscape:window-width="1920" inkscape:window-x="1912" inkscape:window-y="-8" inkscape:zoom="0.98994949" pagecolor="#ffffff" showgrid="false">
	</sodipodi:namedview>
<g>
	<g>
		<defs>
			<rect id="SVGID_1_" y="-8" width="595.3" height="192"/>
		</defs>
		<clipPath id="SVGID_2_">
			<use xlink:href="#SVGID_1_"  style="overflow:visible;"/>
		</clipPath>
		<g id="layer1" inkscape:groupmode="layer" inkscape:label="Calque 1" class="st0">
			
				<image style="overflow:visible;enable-background:new    ;" width="800" height="401" id="image26" xlink:href="8C7735B5.png"  transform="matrix(0.7496 0 0 0.7496 6.1501 -55.2998)">
			</image>
			<path id="path29" inkscape:connector-curvature="0" d="M217.5,165.9c-2-2.4,1.3-5.4,3.6-3.1c1,1,1.1,1.5,0.4,2.5
				C220.4,167.1,218.7,167.3,217.5,165.9z M80.7,154.5c-0.4-1.1-0.3-1.2,0.4-0.4c0.5,0.5,0.7,1.1,0.5,1.3S81,155.2,80.7,154.5
				L80.7,154.5z M83.6,155c0.8-0.4,1.1-0.7,0.6-0.7s-0.9-0.6-0.9-1.2c0-0.6,0.4-1.1,0.9-1s1.4-0.1,2.1-0.3c0.6-0.3,3.2-0.8,5.8-1.1
				c3.6-0.5,4.7-0.4,5,0.3c0.2,0.6,0,0.8-0.7,0.6c-1.1-0.4-5.3,1.5-5.8,2.6c-0.1,0.4-2.1,0.9-4.4,1.1
				C83.6,155.5,82.6,155.5,83.6,155L83.6,155z M71.2,153.7c0-1-0.1-1.1-0.7-0.3c-0.5,0.8-1.1,0.9-3.1,0.2c-1.3-0.5-2.6-0.7-2.7-0.6
				c-0.2,0.2-1.5-0.2-3.1-0.7c-1.8-0.6-2.7-1.4-2.6-2.2c0.1-0.7-0.3-1.2-0.9-1.2c-0.6,0-1.2,0.4-1.2,0.9s-0.8,0-1.8-1.1
				s-1.6-2.6-1.4-3.2c0.3-0.9,1.1-0.8,4.1,0.8c2,1,3.7,2.1,3.7,2.4s1.1,0.6,2.4,0.6c3.5,0.1,13,2,12,2.4c-0.5,0.2-0.9,0.9-0.9,1.6
				c0,0.8-0.7,1.3-1.9,1.4C71.8,154.9,71.2,154.6,71.2,153.7L71.2,153.7z M101.6,151c-0.8-0.6-1.8-0.9-2.3-0.7s-1.1,0-1.4-0.5
				s0.1-0.8,0.9-0.8s4.4-1.5,8-3.3c6.4-3.2,6.6-3.3,6.1-1.5c-0.6,2.2-2.7,4.8-3.9,4.8c-0.5,0-1.1,0.4-1.2,0.9
				c-0.3,0.8-0.5,0.8-1.3,0c-1.4-1.3-2.2-1.2-2.8,0.6C103.1,151.9,102.9,151.9,101.6,151L101.6,151z M207.1,150.3
				c-1.2-1.2-1.1-2.9,0.2-2.4s2.1,2.3,1.3,2.9C208.3,151,207.6,150.8,207.1,150.3L207.1,150.3z M48.9,146c-0.9-0.8-2-1.5-2.4-1.5
				c-1.4,0-13.2-12.2-12.2-12.5c1.3-0.5,1.2-2.5-0.2-2.5c-0.6,0-1.1,0.4-1.1,0.9c0,2.7-7.6-11.5-7.9-14.8c-0.1-1.2-0.3-2.3-0.3-2.3
				c-0.1,0-0.2-0.9-0.3-2.1c-0.1-1.1,0.1-2.1,0.4-2.1s0.6,0.4,0.6,0.8s0.3,0.6,0.6,0.4c0.3-0.2,1.1,0.9,1.6,2.4
				c2.3,6.5,6.1,13.3,9.7,17.6c0.6,0.7,1.2,1.9,1.2,2.6c0,0.7,0.6,1.3,1.3,1.4c2.6,0.4,5.3,4.1,5.8,7.9c0,0.3,0.7,0.7,1.6,0.9
				c1,0.3,1.5,0,1.5-0.7c0-0.8,0.3-0.9,1.4-0.3c1.5,0.8,2.7,3.8,1.5,3.8c-0.4,0-0.5,0.3-0.3,0.8C52.2,148,50.6,147.6,48.9,146
				L48.9,146z M114.4,143.7c0.1-1.8,1-3,3.8-5.3c2-1.7,3.8-3.3,3.9-3.7s0.7-0.7,1.3-0.7c0.6,0,1.1-0.3,1.1-0.7s1.4-2.5,3-4.7
				c3.2-4.1,4.4-7.2,3.3-8c-0.4-0.3-0.8-1.2-0.9-2c-0.4-2.4-0.3-42.9,0.2-50.2c0.2-3.7,0.2-6.3,0-5.8c-0.3,0.7-0.7,0.6-1.5-0.5
				c-0.9-1.3-0.9-1.8-0.1-3.1c0.5-0.8,1.4-1.4,1.9-1.2c0.5,0.2,1.5-0.8,2.2-2.3c1.6-3.3,5.8-6.9,9.3-7.8c4.3-1.2,8,0.3,12.4,4.9
				c6.2,6.4,10.1,15.5,16.9,38.8c1.3,4.4,2.6,8.1,2.9,8.1c0.9,0,1.3-4.7,2.1-26.3c0.4-10.9,1-20.8,1.2-21.8c1.4-6.2,12.4-3.7,13.5,3
				c0.2,1.5,0.9,4.6,1.5,6.9s1.3,8.4,1.6,13.7c0.5,9.1,1,10.8,2.3,8.6c0.3-0.5,1.2-1.2,1.8-1.5c1.6-0.6,2.5-9.4,1.8-16.8
				c-0.6-6.4,1.1-11,5.3-14.2c2.7-2.1,3.1-2.2,13-2.4c15.4-0.4,26.2,1.8,30.9,6.4c2.1,2,2.9,4.8,1.3,4.8c-0.4,0-1.3,0.5-1.9,1.1
				c-0.6,0.6-1.6,0.9-2.2,0.7c-0.6-0.2-2,0.3-3.1,1.2c-1.1,0.9-2.4,1.6-2.9,1.6s-1.7,0.7-2.6,1.5c-1.5,1.3-2.4,1.4-9,1
				c-4.8-0.3-7.5-0.2-7.8,0.3c-0.5,0.8-3.5,14.6-3.5,16c0,0.4,4.4,0.7,9.8,0.7h9.8l0.8,2.1c0.4,1.1,0.6,3,0.4,4.2
				c-0.3,1.4-0.1,2.2,0.7,2.5c1.4,0.5,1.4,2.2,0.1,3c-0.5,0.3-1.2,1.2-1.5,1.9c-0.6,1.7-5.1,2.3-15,2c-5.9-0.2-8.2,0-8.4,0.7
				c-0.2,0.5-0.6,3.9-0.9,7.5c-0.4,5.4-0.3,6.8,0.6,7.5c1.5,1.3,10.6,2.4,19.5,2.4c6.7,0,8.7,0.6,6.5,1.9c-0.6,0.4-0.5,0.7,0.1,1.1
				c0.7,0.4,0.1,0.8-1.6,1.3l-2.6,0.7l2.5,0.6c1.6,0.4,2.3,0.9,2.1,1.6c-0.2,0.6,0.3,1.2,1.5,1.5c1,0.3,1.7,0.7,1.4,1.1
				c-0.2,0.4-0.9,0.4-1.6,0.2c-0.8-0.3-1-0.2-0.7,0.4c0.3,0.5-1.7,1.5-5.7,2.9c-5.2,1.7-7.4,2-13.5,1.9c-11.9-0.2-19.1-3.2-23.1-9.6
				c-1.7-2.8-1.8-3.4-1.7-15.4c0.1-10.1-0.1-12.6-1-12.9c-0.9-0.3-1,1.9-0.9,13.7c0.1,13.8-0.3,19.2-1.7,20.9
				c-0.4,0.6-0.4,1.4,0.1,2.4c0.7,1.4,0.6,1.4-1.3,0.7c-3.5-1.3-4.9-0.3-4.4,3.4l0.4,3.2l-1.1-3.2c-0.9-2.6-1.5-3.2-3-3.2
				c-1,0-1.8,0.4-1.8,0.8c0,0.4-0.4,0.6-0.8,0.3c-0.5-0.3-2.5-0.6-4.6-0.8c-2.6-0.2-4.4-0.9-6-2.2c-1.2-1-2.5-1.9-2.8-1.9
				c-2.3,0-12.6-29.6-18.1-51.8c-2.7-10.8-3.2-12-4.6-10.6c-0.7,0.7-1,6.2-1,23.6c0,12.5-0.3,24.5-0.6,26.8
				c-0.9,6.7-2.8,12.6-4.6,14.6c-2.1,2.3-3.8,2.6-2.4,0.5c0.7-1.1,0.7-1.7-0.3-2.6c-0.7-0.7-1.7-1.2-2.4-1.2s-1.5-0.8-1.9-1.7
				c-0.6-1.5-0.8-1.3-2.6,2.4c-1.1,2.3-1.9,4.6-2,5.3c0,1.4-4,5.2-6.9,6.7c-1.1,0.6-2.1,1.4-2.1,1.9c0,0.8-3.1,3.3-4,3.3
				C114.4,146,114.3,145,114.4,143.7L114.4,143.7z M173.3,103.4c0-0.3-1.2-1.8-2.7-3.2c-2.4-2.2-2.6-2.3-1.8-0.7
				C170.4,102.9,173.2,105.3,173.3,103.4L173.3,103.4z M188.7,143.8c-0.2-0.4-0.1-0.9,0.3-1.2c0.4-0.3,0.8,0.1,0.8,0.7
				C189.7,144.6,189.3,144.8,188.7,143.8z M531.2,139.7c-7.5-2.5-12.7-6.9-16.3-14c-3.4-6.8-4.4-12.2-4.4-23.6
				c0-8.9,0.3-11.6,1.9-17.6c2.6-9.6,5.8-16.6,10.4-22.2c3-3.7,4.6-5,7.9-6.3c5.2-2,7.7-2,11.7,0c5.1,2.6,7.2,4.5,8.4,7.5
				c3.2,7.9-0.4,14.7-6.9,13c-1.1-0.3-3.6-0.7-5.5-0.9c-3.4-0.4-3.5-0.3-5.7,2.9c-7.6,11.1-9.3,33.4-3.2,42.3
				c2.2,3.3,6.5,5.6,10.1,5.6c7.2,0,12.9-17.5,9.5-29.5l-0.8-2.9l1.8,1.2c1,0.7,1.9,0.9,1.9,0.6c0-0.3,0.5,0.6,1.1,2l1,2.6l0.1-3.7
				c0-2.9,0.3-3.5,1-2.8c0.8,0.6,1,0.4,0.9-1.2c0-1.1-0.4-2.1-0.9-2.3s-0.7-1-0.5-1.8c0.4-1.5,0.4-1.5,1.4,0.2c0.5,1,1,2.4,1,3.1
				c0,0.7,0.3,1.2,0.7,1c1-0.6,2.9,4.5,4.4,11.7c1.1,5.7,1.2,7.3,0.4,12c-1.7,10.2-6.8,18-14,21.8
				C544.8,140.7,535.7,141.2,531.2,139.7L531.2,139.7z M471.3,137.5c-5.1-2.5-8.6-5.7-10.8-9.9c-1.5-3-1.7-4.3-1.4-9
				c0.2-3.8,0.9-6.3,2-8.3c1.6-2.8,1.6-2.8,0.2-4.4c-1.5-1.7-1.9-4.8-2.9-21.2c-0.9-15.8,2.7-25.2,11.2-29.6s17.5-1.7,24.7,7.5
				c4.4,5.6,6.6,10.2,9.4,19.3c3.5,11.7,4.2,15.1,4.2,23.2c0,15.7-5.1,26.6-14.9,31.5c-3.7,1.9-5.4,2.3-11.2,2.5
				C476,139.3,474.7,139.1,471.3,137.5L471.3,137.5z M484.3,119.8c4.9-3,7.8-11.8,7.8-23.5c0-12.9-2.4-20.1-8.7-26.5
				c-4-4.1-6.9-4.3-9.4-0.8c-1.5,2.1-1.7,3.7-2.3,14.8c-0.6,11.9-1.6,19-3,20.7c-3,3.6-5.1,6.8-5.1,7.5c0,0.5,0.6,0.2,1.2-0.7
				l1.2-1.5l-0.5,1.5c-0.3,0.8-0.7,2.5-0.9,3.8c-0.4,2.2-0.3,2.2,0.8,0.8c4.3-5.4,5.4-6.6,6.8-7.3c1-0.5,0.7-0.1-0.6,1.2
				c-1.2,1.1-1.9,2.4-1.6,2.8c0.3,0.5,0.2,0.7-0.3,0.3c-0.5-0.3-0.9-0.1-0.9,0.3c0,0.5,0.5,0.7,1.1,0.4c0.6-0.2,1.1-0.1,1.1,0.3
				c0,0.4,0.5,0.7,1.1,0.7c0.7,0,0.9,0.4,0.7,1.2C471.1,120,479.1,122.9,484.3,119.8L484.3,119.8z M471.4,113
				c-0.6-1,0.3-2.4,1.2-1.8c0.4,0.2,1.3,0,2-0.5s0.5-0.1-0.5,1.1C472,114,472,114,471.4,113L471.4,113z M478.1,108.5
				c0.3-0.4,0.8-0.6,1.2-0.3c1,0.6,0.8,1.1-0.5,1.1C478.2,109.2,477.9,108.9,478.1,108.5z M475.4,106.8c0.4-0.4,1.4-0.6,2.1-0.4
				c1,0.2,0.8,0.4-0.7,0.7C475.4,107.4,474.9,107.3,475.4,106.8L475.4,106.8z M476.5,103.5c0.7-0.2,1.7-0.2,2.2,0s-0.1,0.4-1.3,0.3
				C476.1,103.8,475.7,103.7,476.5,103.5L476.5,103.5z M470.3,103c0-0.2,0.5-0.5,1.2-0.7c0.7-0.3,1-0.1,0.7,0.3
				C471.7,103.2,470.3,103.6,470.3,103z M483.8,102.5c0-0.4,0.4-0.8,0.8-0.8s0.6,0.3,0.3,0.8c-0.3,0.4-0.6,0.8-0.8,0.8
				C483.9,103.2,483.8,102.9,483.8,102.5L483.8,102.5z M473.8,101.3c0.5-0.2,1.4-0.2,1.9,0s0.1,0.4-0.9,0.4
				C473.7,101.6,473.3,101.5,473.8,101.3z M479.9,101.2c0.5-0.2,1.2-0.2,1.4,0.1c0.2,0.2-0.2,0.4-1,0.4
				C479.4,101.7,479.3,101.5,479.9,101.2L479.9,101.2z M196.7,136.8c-1.7-2.2-1.8-3.1-0.2-1.5c1,0.9,1.6,1.9,1.3,2.1
				C197.6,137.6,197.1,137.4,196.7,136.8L196.7,136.8z M382.6,136.6c-10.1-2.8-16.9-10.8-19.9-23.5c-2.7-11-1.2-29,3.1-39
				c1-2.2,1.8-4.5,1.8-5s2.1-3.9,4.7-7.5c4-5.7,5.2-6.8,8.7-8.3c6.7-3,11-2.3,17.5,2.8c5.2,4.1,6.1,14.6,1.4,17.1
				c-2.1,1.1-5.5,1-7.4-0.4c-2.7-1.9-6.7-0.7-8.8,2.6c-6.1,9.2-8.6,26.9-5.5,37.6c2.2,7.4,9.7,11.9,15.4,9.3c5-2.4,8.7-15,7.2-24.7
				c-0.9-6-0.5-8.1,1-5.4c0.6,1.1,1,1.4,1,0.7c0-0.6,0.5-0.1,1.1,1.1l1,2.2L405,93c0-2.2,0.5-3.4,1.4-3.9c0.7-0.4,0.9-0.8,0.5-0.8
				c-0.8,0-1.2-2.3-0.4-2.3c0.5,0,3,2.8,3,3.4c0,0.2-0.3,0.3-0.6,0.2c-1.2-0.2-3.2,1.1-2.7,1.8c0.3,0.5,0.7,0.4,1-0.1
				c0.7-1.2,2.7-0.3,3.6,1.7c1.9,4.2,3.4,13.6,2.9,18.9C412.2,130.3,398.6,141.1,382.6,136.6L382.6,136.6z M325.1,136.4
				c-0.8-0.2-1.8-0.8-2.1-1.4c-0.3-0.6-1.2-1-2-1s-1.8-0.7-2.2-1.5c-1.1-2-1-10.8,0.1-11.9c0.6-0.6,0.9-4.1,1-10.5
				c0-5.3,0.3-16.1,0.6-24.2c0.3-8,0.3-15.5,0-16.6l-0.6-1.9l-5.3,1c-2.9,0.6-6.1,1.4-7.1,1.9c-2.7,1.4-8.1,1-10.4-0.7
				c-5.1-3.8-6.9-10.5-4-15.1s5.1-5.3,14.4-4.9c10.1,0.5,21.5-0.8,32.6-3.7c13.2-3.4,20.5-2.6,23.7,2.7c1.9,3.1,1.8,3.7-0.9,6.8
				c-3.2,3.7-4.2,4.1-14.3,6.1c-4.9,1-9.6,2-10.5,2.2c-1.5,0.5-1.5,0.7-1,31.8c0.6,35.6,0.4,38.7-2.5,39.9
				C332.5,136.5,327.5,136.9,325.1,136.4L325.1,136.4z M321.5,129.7c-0.2-0.7-0.4-0.3-0.4,0.9s0.1,1.8,0.3,1.3
				C321.7,131.4,321.7,130.4,321.5,129.7L321.5,129.7z M322.2,125.6c-0.2-0.5-0.4-0.1-0.4,0.9s0.2,1.5,0.4,0.9
				C322.5,126.9,322.5,126.1,322.2,125.6L322.2,125.6z M320.8,108.3c-0.2-0.9-0.3-0.2-0.3,1.7s0.1,2.6,0.3,1.7
				C321,110.8,321,109.2,320.8,108.3z M334.3,67.1c-0.2-0.6-0.4-0.4-0.5,0.5c0,0.8,0.1,1.2,0.4,1C334.5,68.3,334.5,67.6,334.3,67.1
				L334.3,67.1z M79.3,127.9c-1.1-0.8-2.1-2-2.1-2.7c0-0.8-0.5-1-1.6-0.7c-1,0.3-2.4-0.2-3.8-1.1c-1.7-1.2-2.1-2.1-2.1-4.6
				c0-2.7-0.1-2.9-1.2-2.1c-0.6,0.5-1,1.6-0.8,2.4c0.2,0.9,0.1,1.3-0.5,1c-0.5-0.2-1.5-0.6-2.2-0.9c-0.7-0.3-1.3-0.8-1.3-1.1
				s-0.3-0.7-0.8-0.7c-0.7,0-2.5-1.1-14.4-8.7c-2.8-1.8-5.2-3.3-5.5-3.3c-0.2,0-2.3-1.3-4.7-2.9c-2.3-1.6-4.9-3.1-5.6-3.4
				c-0.8-0.3-1.1-0.9-0.8-1.4c4.2-7,6.6-10.3,7.1-9.5c0.4,0.6,1.3,0.7,2.7,0.4c2.1-0.5,2-0.4-1.1,2.5c-2.7,2.6-3.1,3.4-2.7,5l0.5,2
				l1.4-1.8c0.8-1,1.4-2.1,1.4-2.5c0-1.8,4.6-5.6,6.7-5.6c1.2,0,2.6-0.5,3.1-1.2c0.9-1.1,1-1,1.6,0.4c0.3,0.9,1.1,1.6,1.8,1.6
				c1,0,1.1-0.2,0.3-1.1c-1.6-1.9-0.2-2.1,2.2-0.4c2.3,1.7,2.4,3,0.3,5.2c-1.5,1.5-1.2,2.6,0.7,2.1c0.9-0.2,1.9-0.5,2.3-0.5
				c0.3,0,0.6-1,0.6-2.3v-2.2l5.3,3.4c2.9,1.9,5.6,3.4,5.9,3.4c0.6,0,2.9-3.4,9.8-14.6c1.8-2.9,3.9-6.1,4.6-7.1
				c0.8-1,1.8-2.7,2.3-3.8l0.9-1.9l0.3,2.2c0.2,1.2,0.6,2.7,1.1,3.2c1.2,1.4,2.8,1.1,2.8-0.5c0-2.1-0.8-3.9-1.6-3.4
				c-0.9,0.5-0.8-0.5,0.1-1.9C92.8,68,93,68,93,68.6c0,0.5,0.5,0.9,1.1,0.9s1.2-0.4,1.4-0.9c0.3-0.7,0.4-0.7,0.4,0
				c0,0.5,0.4,0.8,0.7,0.6c0.4-0.2,1.3,0.1,2,0.8c1.5,1.5,3.6,0.6,4-1.7c0.2-0.8,0.7-1.7,1.1-2c0.6-0.4,0.2-1.8-1.3-4.6l-2.2-4.1
				L98,58.8c-1.8,0.9-2.1,0.9-1.8,0.1c0.8-2.1,9.7-15.9,9.2-14.4c-0.3,1.1,0,2.1,1.1,3.2c0.8,0.8,1.5,2,1.5,2.7
				c0,0.6,0.3,1.1,0.8,1.1c0.4,0,0.8-0.4,0.8-0.8s0.3-0.6,0.8-0.3c0.4,0.3,0.8-0.4,0.8-1.5c0-1.4-0.4-1.9-1.5-1.9
				c-1.3,0-1.5-0.5-1.5-4.2v-4.2l2.9,3.1c3,3.2,4.6,3.9,4.6,2c0-0.6-0.3-1.1-0.7-1.1c-1.5,0-1.7-3.1-0.3-4.2c0.8-0.6,1-1.1,0.5-1.1
				s-0.7-0.8-0.5-2c0.3-1.7,0.2-1.9-1.2-1.6c-1.8,0.5-2-0.1-0.7-1.9c0.8-1.2,1.8-0.7,10.3,4.4c12.2,7.4,11.5,6.7,9.9,9.6
				c-0.7,1.3-1.7,2.8-2.2,3.3s-1.1,1.6-1.4,2.5c-0.8,2.5-1.9,0.9-1.9-2.7c0-1.8-0.3-3.3-0.8-3.3s-0.8,0.5-0.8,1.2s-0.7,1.4-1.5,1.6
				c-2.8,0.7-0.9,6.2,2.2,6.2c0.6,0,0.4,0.8-0.6,2.2c-0.9,1.2-1.6,2.5-1.6,3s-0.3,0.8-0.6,0.8c-0.3,0-0.9,0.8-1.4,1.7
				c-0.4,0.9-2.5,4.4-4.6,7.7s-4.2,6.8-4.8,7.9c-0.6,1-1.2,2-1.4,2.3c-0.2,0.2-1,1.4-1.7,2.6c-5.8,10-8.5,13.9-10,14.7
				c-2,1.1-3,3-1.9,3.7c0.4,0.3,0.1,1.2-0.7,2.3c-1.2,1.5-1.4,1.6-1.4,0.6s-0.6-1.3-2.3-1.3c-1.5,0-2.3,0.4-2.3,1.1
				c0,0.6-0.3,1.1-0.8,1.1c-1,0-1,4.3,0,4.9c0.4,0.3,1-0.1,1.2-0.8c0.3-0.7,0-1.5-0.6-1.9c-0.8-0.5-0.5-0.7,1-0.7
				c2.8,0,2.6,1.1-0.9,6.6c-1.7,2.6-3,5-3,5.4s-0.5,0.7-1.1,0.7c-0.7,0-0.9-0.5-0.7-1.5c0.7-2.5-2.9-2.3-5.4,0.4
				c-0.9,1-2.2,1.8-2.7,1.8c-1,0-3.6,2.5-3.6,3.4c0,0.2,0.9,0.4,2.1,0.4s2.5,0.4,3,0.9c0.7,0.7,0.9,0.7,0.9-0.2
				c0-0.7,0.8-1.2,2.3-1.3l2.3-0.2l-1.4,2.1c-0.8,1.1-1.8,2.6-2.1,3.3C81.4,129.3,81.2,129.3,79.3,127.9L79.3,127.9z M79.5,114.2
				c0-0.4,0.8-1.5,1.6-2.4c1.2-1.3,1.3-1.7,0.5-1.7c-0.6,0-1.6,0.6-2.3,1.3c-3.5,3.7-4.3,3.6-4.3-0.5c0-3.6-1.5-2.1-1.6,1.6
				c-0.1,2,0.4,3.1,1.7,4.3l1.8,1.5l1.3-1.7C78.9,115.6,79.5,114.6,79.5,114.2z M43.1,100.2c-0.3-0.4-0.8-0.8-1.2-0.8
				s-0.7,0.3-0.7,0.8s0.5,0.8,1.2,0.8S43.4,100.7,43.1,100.2z M53.7,97.6c-0.3-0.7-0.5-1.7-0.5-2.4c0-0.9-0.2-1-0.8-0.4
				c-0.9,0.9-0.2,4,1,4C53.8,98.7,54,98.2,53.7,97.6L53.7,97.6z M110.2,66.8c0-0.5,0.4-1.1,0.9-1.3c0.6-0.2,0.5-0.4-0.2-0.4
				c-0.6,0-1.9,0.7-2.9,1.5c-1.3,1.2-1.5,1.7-0.7,2.2C108.5,69.5,110.2,68.3,110.2,66.8z M113.2,59.5c0-0.6,0.5-1.2,1.1-1.5
				c0.6-0.2,1.1-0.9,1.1-1.5s0.5-1.6,1.2-2.3c1.7-1.7,0.9-2.2-1.1-0.6c-0.9,0.7-2.3,1.8-3.1,2.5c-1,0.8-1.4,1.7-1.1,2.8
				C112,60.7,113.2,61.1,113.2,59.5L113.2,59.5z M118,46.9c0.7-1.3,1.2-2.5,1-2.7c-0.6-0.6-3.5,2.4-3.5,3.7
				C115.5,49.9,116.5,49.5,118,46.9L118,46.9z M318.8,117.8c0-0.9,0.2-1.1,0.5-0.5c0.2,0.5,0.2,1.2-0.1,1.4
				C319,119,318.8,118.6,318.8,117.8L318.8,117.8z M227.3,103.6c0-0.6,0.3-1,0.7-0.7s0.8,0.8,0.8,1.2s-0.3,0.7-0.8,0.7
				C227.6,104.7,227.3,104.2,227.3,103.6z M23.6,101.9c-0.8-1.3-1.7-2.4-2-2.4S21,98.3,21,96.9c0-1.4,0.3-2.6,0.7-2.6
				s0.7-1.9,0.6-4.3c0-5.1,1.2-9.2,3.3-11.2c1.6-1.4,1.6-1.4,1,1.2c-0.3,1.4-0.8,5.1-1,8.1c-0.3,3-0.9,5.7-1.4,6
				c-0.7,0.4-0.7,1.4,0.2,4.3C25.9,103.3,25.5,105.1,23.6,101.9z M548.7,92.3c-0.7-1.9-0.5-2.4,0.4-0.9c0.4,0.8,0.6,1.5,0.4,1.7
				C549.3,93.4,549,93,548.7,92.3z M553.5,92c0-0.4,0.3-0.6,0.8-0.3c0.4,0.3,0.8,0.6,0.8,0.8s-0.3,0.3-0.8,0.3S553.5,92.4,553.5,92z
				 M404,87.6c-0.3-1.2-0.2-1.5,0.3-1c0.4,0.4,0.6,1.2,0.5,1.8C404.7,88.9,404.3,88.6,404,87.6z M549,81.5c-1-0.8-2.4-1.5-2.9-1.5
				c-0.6,0-0.8-0.2-0.6-0.5c0.6-0.6,5.8,2.1,5.8,2.9C551.3,83.2,551.1,83.2,549,81.5z M400.9,79.3c-0.3-0.4-0.1-0.8,0.3-0.8
				s0.8,0.3,0.8,0.8s-0.1,0.8-0.3,0.8C401.5,80,401.1,79.7,400.9,79.3z M27,74.4c0-0.6,0.1-1.1,0.3-1.1c0.2,0,0.5,0.5,0.7,1.1
				s0.1,1.1-0.3,1.1C27.3,75.5,27,75,27,74.4z M26.8,71c-0.2-0.8-0.1-1.5,0.2-1.5s0.6-0.6,0.5-1.4s0.9-3,2.1-4.9
				c1.6-2.6,2.6-3.4,3.6-3.2c1,0.3,1.3,0,1.1-1.3c-0.3-2.4,2.7-5.9,5-5.9c1.5,0,1.9-0.3,1.7-1.6c-0.2-1.1,0.8-2.4,3.1-4.4
				c1.9-1.6,3.5-2.5,3.6-2c0.2,0.5,0.6,0.5,1.2,0c0.7-0.6,1.1-0.6,1.5,0c0.6,1-3.1,4.8-4.1,4.2c-0.4-0.3-0.7-0.1-0.7,0.3
				s-1.7,2.5-3.8,4.6s-4.3,4.7-5.1,5.8c-2,3.1-4.1,5.4-5,5.4c-1.5,0-3.6,3.8-3.2,5.7C29.1,72.9,27.4,73.2,26.8,71L26.8,71z
				 M32.2,62.7c0-0.4-0.3-0.7-0.7-0.7c-0.4,0-0.8,0.3-0.8,0.7s0.3,0.8,0.8,0.8S32.2,63.2,32.2,62.7z M53.8,42.9
				c0.8-1.6,1.8-2.6,2.7-2.6s1.2-0.4,0.9-0.9s0-0.3,0.6,0.4c1.3,1.5,2,1.7,2,0.4c0-0.5,0.8-1.3,1.9-1.8c1-0.5,1.9-0.6,1.9-0.2
				s0.5,0.7,1.1,0.7c0.7,0,0.9-0.4,0.7-1.1c-0.3-0.7,0.3-1.4,1.5-2c2.3-1.1,2.8-0.8,2.2,1.5c-0.5,1.9-5.7,4.5-6.1,3.2
				c-0.4-1.3-2.2-0.9-2.6,0.7c-0.4,1.5-2,2.1-2,0.7c0-0.4-0.4-0.7-0.8-0.7c-0.5,0-0.6,0.5-0.4,1.1c0.3,0.7-0.4,1.5-1.9,2.2
				C52.3,45.9,52.3,45.9,53.8,42.9L53.8,42.9z M99.4,40.6c-1.7-0.6-3.8-1.1-4.7-1.1c-1.9,0-2.3-1.8-0.6-3.4c1.2-1.2,2-1.4,1.8-0.5
				c-0.1,0.3,0.3,1.3,0.9,2.3l1.1,1.7L99,38c1-1.4,1.4-1.4,3.5-0.5c2.3,1,2.3,1,1.1,2.6C102.4,41.6,102.2,41.6,99.4,40.6L99.4,40.6z
				 M71.4,36.8c0.3-2.8,2.1-3.4,1.9-0.6c-0.1,1.1-0.6,2.2-1.1,2.4C71.4,38.8,71.2,38.3,71.4,36.8z M74.6,37.3
				c-0.3-0.4,0-0.6,0.7-0.3c0.8,0.3,1.2,0,1.2-1.2c0-1.5,0.3-1.6,2.6-1.2c1.6,0.3,2.7,0.2,2.8-0.3c0.5-1.5,2.7,0.1,2.7,1.9
				c0,1.7-0.2,1.8-4.7,1.8C77.2,38,74.9,37.7,74.6,37.3z M291.9,36.5c0.2-0.5,0.5-0.9,0.8-0.8c0.9,0.1,0.7,1.1-0.2,1.4
				C292,37.3,291.7,37,291.9,36.5z M308.7,35.3c-1.4-1.4-1.5-2.7-0.3-3.9c2.5-2.5,6.8,0.4,5.1,3.6C312.5,36.8,310.3,36.9,308.7,35.3
				L308.7,35.3z M281.2,26.8c0-0.4,0.3-0.9,0.8-1.2c0.4-0.3,0.8,0.1,0.8,0.7s-0.3,1.2-0.8,1.2S281.2,27.2,281.2,26.8z M297.4,15.5
				c-0.2-0.4-0.2-1.1,0-1.5c0.7-1.1,2.6-0.9,2.6,0.3C300,15.6,298,16.5,297.4,15.5L297.4,15.5z"/>
		</g>
	</g>
</g>
</svg>
